<?xml version="1.0" encoding="utf-8"?>
<!-- Generator: Adobe Illustrator 16.0.0, SVG Export Plug-In . SVG Version: 6.00 Build 0)  -->
<!DOCTYPE svg PUBLIC "-//W3C//DTD SVG 1.1//EN" "http://www.w3.org/Graphics/SVG/1.1/DTD/svg11.dtd">
<svg version="1.1" id="Layer_1" xmlns="http://www.w3.org/2000/svg" xmlns:xlink="http://www.w3.org/1999/xlink" x="0px" y="0px"
	 width="45px" height="45px" viewBox="0 0 45 45" enable-background="new 0 0 45 45" xml:space="preserve">
<path fill="#C371AE" d="M23,0.21c-12.427,0-22.5,10.073-22.5,22.5s10.073,22.5,22.5,22.5s22.5-10.073,22.5-22.5S35.427,0.21,23,0.21
	z M24.847,34.987L23,36.824l-1.846-1.837C14.307,28.932,9.831,24.846,9.831,19.832c0-4.078,3.163-7.236,7.241-7.236
	c2.244,0,4.48,1.05,5.928,2.765c1.448-1.715,3.683-2.765,5.927-2.765c4.078,0,7.241,3.158,7.241,7.236
	C36.169,24.846,31.693,28.932,24.847,34.987z"/>
</svg>
