<?xml version="1.0" encoding="utf-8"?>
<!-- Generator: Adobe Illustrator 16.0.0, SVG Export Plug-In . SVG Version: 6.00 Build 0)  -->
<!DOCTYPE svg PUBLIC "-//W3C//DTD SVG 1.1//EN" "http://www.w3.org/Graphics/SVG/1.1/DTD/svg11.dtd">
<svg version="1.1" id="Layer_1" xmlns="http://www.w3.org/2000/svg" xmlns:xlink="http://www.w3.org/1999/xlink" x="0px" y="0px"
	 width="395.173px" height="117.931px" viewBox="0 0 395.173 117.931" enable-background="new 0 0 395.173 117.931"
	 xml:space="preserve">
<g>
	<g>
		<g>
			<linearGradient id="SVGID_1_" gradientUnits="userSpaceOnUse" x1="58.0718" y1="32.0981" x2="48.1328" y2="94.8706">
				<stop  offset="0" style="stop-color:#2D84C6"/>
				<stop  offset="1" style="stop-color:#1C6794"/>
			</linearGradient>
			<path fill="url(#SVGID_1_)" d="M50.551,69.21h4.644c3.017,0,5.872-0.571,8.563-1.714c2.693-1.143,5.035-2.707,7.033-4.709
				c1.997-1.999,3.567-4.321,4.707-6.969c1.141-2.65,1.712-5.527,1.712-8.623c0-3.018-0.571-5.875-1.712-8.565
				c-1.14-2.689-2.71-5.034-4.707-7.033c-1.998-1.997-4.34-3.566-7.033-4.707c-2.691-1.14-5.546-1.712-8.563-1.712
				c-4.075,0-7.7,0.775-10.882,2.323c-3.18,1.551-5.748,3.914-7.705,7.093h-9.049c2.279-5.542,5.867-9.865,10.761-12.962
				c4.892-3.098,10.518-4.648,16.875-4.648c4.16,0,8.074,0.795,11.743,2.386c3.669,1.588,6.866,3.75,9.599,6.481
				c2.73,2.733,4.894,5.932,6.482,9.601c1.592,3.669,2.389,7.583,2.389,11.744c0,3.83-0.675,7.457-2.018,10.886
				c-1.351,3.421-3.204,6.46-5.565,9.111c-2.368,2.649-5.161,4.83-8.38,6.542c-3.224,1.71-6.667,2.815-10.333,3.304v9.534h-8.561
				V69.21z M60.089,97.459c0,1.469-0.491,2.691-1.466,3.671c-0.979,0.978-2.203,1.469-3.671,1.469c-1.466,0-2.691-0.491-3.667-1.469
				c-0.98-0.979-1.469-2.202-1.469-3.671c0-1.464,0.489-2.689,1.469-3.666c0.975-0.982,2.2-1.469,3.667-1.469
				c1.468,0,2.691,0.486,3.671,1.469C59.598,94.77,60.089,95.995,60.089,97.459z"/>
			<defs>
				<filter id="Adobe_OpacityMaskFilter" filterUnits="userSpaceOnUse" x="25.933" y="15.333" width="63.354" height="73.885">
					<feColorMatrix  type="matrix" values="1 0 0 0 0  0 1 0 0 0  0 0 1 0 0  0 0 0 1 0"/>
				</filter>
			</defs>
			<mask maskUnits="userSpaceOnUse" x="25.933" y="15.333" width="63.354" height="73.885" id="SVGID_2_">
				<g filter="url(#Adobe_OpacityMaskFilter)">
					<g>
						<path fill="#FFFFFF" d="M50.551,69.21h4.644c3.017,0,5.872-0.571,8.563-1.714c2.693-1.143,5.035-2.707,7.033-4.709
							c1.997-1.999,3.567-4.321,4.707-6.969c1.141-2.65,1.712-5.527,1.712-8.623c0-3.018-0.571-5.875-1.712-8.565
							c-1.14-2.689-2.71-5.034-4.707-7.033c-1.998-1.997-4.34-3.566-7.033-4.707c-2.691-1.14-5.546-1.712-8.563-1.712
							c-4.075,0-7.7,0.775-10.882,2.323c-3.18,1.551-5.748,3.914-7.705,7.093h-9.049c2.279-5.542,5.867-9.865,10.761-12.962
							c4.892-3.098,10.518-4.648,16.875-4.648c4.16,0,8.074,0.795,11.743,2.386c3.669,1.588,6.866,3.75,9.599,6.481
							c2.73,2.733,4.894,5.932,6.482,9.601c1.592,3.669,2.389,7.583,2.389,11.744c0,3.83-0.675,7.457-2.018,10.886
							c-1.351,3.421-3.204,6.46-5.565,9.111c-2.368,2.649-5.161,4.83-8.38,6.542c-3.224,1.71-6.667,2.815-10.333,3.304v9.534h-8.561
							V69.21z M60.089,97.459c0,1.469-0.491,2.691-1.466,3.671c-0.979,0.978-2.203,1.469-3.671,1.469
							c-1.466,0-2.691-0.491-3.667-1.469c-0.98-0.979-1.469-2.202-1.469-3.671c0-1.464,0.489-2.689,1.469-3.666
							c0.975-0.982,2.2-1.469,3.667-1.469c1.468,0,2.691,0.486,3.671,1.469C59.598,94.77,60.089,95.995,60.089,97.459z"/>
					</g>
				</g>
			</mask>
			<g mask="url(#SVGID_2_)">
				<linearGradient id="SVGID_3_" gradientUnits="userSpaceOnUse" x1="50.269" y1="23.8892" x2="87.5846" y2="56.4967">
					<stop  offset="0" style="stop-color:#C270AD"/>
					<stop  offset="1" style="stop-color:#94478D"/>
				</linearGradient>
				<path fill="url(#SVGID_3_)" d="M57.683,25.317c0,0,21.487-2.724,27.726,24.942c6.236,27.667,8.331-27.097-20.499-33.496
					C36.08,10.364,37.136,27.068,36.608,34.595C36.08,42.123,57.683,25.317,57.683,25.317z"/>
				<linearGradient id="SVGID_4_" gradientUnits="userSpaceOnUse" x1="50.9814" y1="19.5547" x2="28.6621" y2="34.5505">
					<stop  offset="0" style="stop-color:#D89D31"/>
					<stop  offset="1" style="stop-color:#B17C2C"/>
				</linearGradient>
				<path fill="url(#SVGID_4_)" d="M36.608,34.595c0,0,6.521-17.584,19.875-17.584c0,0-23.512-3.71-28.925,17.584
					S31.562,34.574,36.608,34.595z"/>
				<path fill="#D89D33" d="M77.21,47.195c0,0,0.849,18.339-18.099,29.843l1.512,10.148l-11.923,2.031l-1.355-21.679L77.21,47.195z"
					/>
			</g>
		</g>
		<linearGradient id="SVGID_5_" gradientUnits="userSpaceOnUse" x1="55.4756" y1="94.1602" x2="54.2749" y2="101.7435">
			<stop  offset="0" style="stop-color:#D89D31"/>
			<stop  offset="1" style="stop-color:#B17C2C"/>
		</linearGradient>
		<circle fill="url(#SVGID_5_)" cx="54.953" cy="97.461" r="5.136"/>
	</g>
	<g>
		<path fill="#FDFDFE" d="M112.488,52.517h9.499c3.289,0,5.875,0.762,7.764,2.284c1.827,1.552,2.74,4.034,2.74,7.445
			c0,2.191-0.237,3.806-0.708,4.84c-0.472,1.036-1.149,1.95-2.032,2.741c-1.889,1.492-4.476,2.237-7.764,2.237h-6.303v12.423h-3.196
			V52.517z M127.239,67.498c1.217-0.973,1.827-2.724,1.827-5.252c0-2.405-0.609-4.127-1.827-5.162
			c-1.31-0.975-3.03-1.461-5.161-1.461h-6.394v13.334h6.394C124.209,68.958,125.929,68.472,127.239,67.498z"/>
		<path fill="#FDFDFE" d="M135.23,52.517h21.282v3.198h-18.085v13.152h14.889v3.197h-14.889v9.228h18.085v3.195H135.23V52.517z"/>
		<path fill="#FDFDFE" d="M177.019,52.517h3.196v31.97h-3.196L162.13,58.911v25.576h-3.197v-31.97h3.197l14.889,25.577V52.517z"/>
		<path fill="#FDFDFE" d="M202.593,76.313c0-1.492-0.411-2.695-1.234-3.609c-0.82-0.913-1.863-1.666-3.126-2.26
			c-1.264-0.595-2.657-1.125-4.179-1.599c-1.523-0.471-2.968-1.012-4.339-1.62c-1.37-0.608-2.573-1.377-3.608-2.307
			c-1.035-0.93-1.706-2.155-2.009-3.676c-0.152-1.31,0.038-2.559,0.571-3.746c0.532-1.188,1.293-2.231,2.283-3.129
			c0.989-0.897,2.161-1.613,3.517-2.146c1.354-0.532,2.763-0.799,4.225-0.799c1.645,0,3.075,0.29,4.292,0.868
			c1.218,0.579,2.252,1.272,3.106,2.078c0.852,0.807,1.514,1.652,1.987,2.535c0.47,0.883,0.752,1.629,0.843,2.238h-3.515
			c-0.58-1.461-1.493-2.572-2.74-3.333c-1.249-0.762-2.573-1.157-3.973-1.188c-0.944-0.029-1.889,0.123-2.832,0.458
			c-0.945,0.335-1.774,0.792-2.489,1.37c-0.716,0.579-1.264,1.264-1.645,2.056c-0.381,0.792-0.479,1.629-0.296,2.511
			c0.243,1.067,0.86,1.912,1.85,2.535c0.99,0.624,2.169,1.18,3.54,1.666c1.37,0.489,2.815,0.976,4.338,1.464
			c1.523,0.487,2.924,1.117,4.2,1.895c1.28,0.775,2.338,1.772,3.176,2.991c0.837,1.219,1.256,2.8,1.256,4.75
			c0,1.46-0.304,2.77-0.912,3.928c-0.61,1.155-1.425,2.131-2.446,2.924c-1.019,0.791-2.198,1.391-3.538,1.803
			c-1.34,0.411-2.74,0.617-4.201,0.617c-1.462,0-2.894-0.261-4.293-0.777c-1.401-0.518-2.634-1.241-3.699-2.168
			c-1.066-0.93-1.925-2.049-2.581-3.358c-0.655-1.308-0.981-2.755-0.981-4.338h3.197c0,1.036,0.22,2.009,0.662,2.922
			c0.441,0.914,1.042,1.707,1.804,2.376s1.652,1.203,2.672,1.599s2.093,0.578,3.22,0.548c1.034-0.03,2.024-0.168,2.968-0.413
			c0.944-0.243,1.781-0.614,2.512-1.116c0.729-0.504,1.316-1.128,1.759-1.873C202.371,78.237,202.593,77.347,202.593,76.313z"/>
		<path fill="#FDFDFE" d="M231.548,84.487h-3.337l-4.019-12.423h-9.18l-3.973,12.423h-3.334l10.23-31.97h3.38L231.548,84.487z
			 M216.064,68.867h7.125l-3.563-11.098L216.064,68.867z"/>
		<path fill="#FDFDFE" d="M234.103,52.517h10.734c2.189,0,4.262,0.419,6.208,1.257c1.951,0.837,3.641,1.971,5.07,3.402
			c1.432,1.431,2.565,3.122,3.403,5.07c0.837,1.948,1.256,4.019,1.256,6.212c0,2.189-0.419,4.262-1.256,6.208
			c-0.838,1.951-1.972,3.654-3.403,5.118c-1.43,1.46-3.119,2.611-5.07,3.447c-1.946,0.836-4.019,1.256-6.208,1.256h-10.734V52.517z
			 M244.837,81.292c1.764,0,3.415-0.337,4.953-1.008c1.538-0.67,2.885-1.591,4.042-2.764c1.158-1.168,2.07-2.532,2.739-4.086
			c0.671-1.553,1.008-3.213,1.008-4.977c0-1.768-0.337-3.419-1.008-4.957c-0.669-1.537-1.581-2.884-2.739-4.041
			c-1.157-1.157-2.504-2.07-4.042-2.741c-1.538-0.67-3.189-1.004-4.953-1.004H237.3v25.577H244.837z"/>
		<path fill="#FDFDFE" d="M263.194,68.502c0-2.344,0.449-4.551,1.345-6.621c0.899-2.071,2.122-3.883,3.671-5.436
			c1.551-1.552,3.362-2.777,5.431-3.677c2.067-0.897,4.271-1.347,6.612-1.347c2.341,0,4.544,0.45,6.611,1.347
			c2.068,0.899,3.878,2.125,5.429,3.677c1.551,1.553,2.773,3.365,3.671,5.436c0.897,2.07,1.347,4.277,1.347,6.621
			c0,2.346-0.449,4.553-1.347,6.623s-2.12,3.882-3.671,5.435s-3.36,2.778-5.429,3.678c-2.067,0.895-4.271,1.347-6.611,1.347
			c-2.342,0-4.545-0.452-6.612-1.347c-2.068-0.899-3.88-2.125-5.431-3.678c-1.549-1.553-2.771-3.364-3.671-5.435
			C263.644,73.055,263.194,70.848,263.194,68.502z M266.392,68.48c0,1.89,0.365,3.682,1.097,5.374
			c0.73,1.694,1.728,3.171,2.989,4.438c1.265,1.267,2.741,2.266,4.432,2.995c1.689,0.734,3.479,1.1,5.365,1.1
			c1.89,0,3.671-0.365,5.344-1.1c1.675-0.729,3.145-1.729,4.409-2.995c1.262-1.267,2.259-2.743,2.989-4.438
			c0.731-1.692,1.097-3.484,1.097-5.374c0-1.893-0.365-3.676-1.097-5.353c-0.73-1.677-1.728-3.148-2.989-4.416
			c-1.265-1.265-2.734-2.264-4.409-2.996c-1.673-0.733-3.454-1.099-5.344-1.099c-1.886,0-3.676,0.366-5.365,1.099
			c-1.69,0.732-3.167,1.73-4.432,2.996c-1.262,1.267-2.259,2.739-2.989,4.416C266.757,64.805,266.392,66.588,266.392,68.48z"/>
		<path fill="#FDFDFE" d="M300.415,52.517h9.501c3.106,0,5.647,0.762,7.626,2.284c0.943,0.883,1.657,1.971,2.146,3.265
			c0.486,1.295,0.732,2.672,0.732,4.134c0,3.35-0.961,5.863-2.879,7.535c-0.397,0.305-0.823,0.596-1.279,0.869
			c0.426,0.243,0.839,0.5,1.234,0.775c1.918,1.675,2.876,3.866,2.876,6.575v6.532h-3.198v-6.532c0-0.912-0.165-1.721-0.499-2.42
			c-0.337-0.699-0.839-1.338-1.508-1.918c-1.127-1.036-2.711-1.553-4.75-1.553h-6.806v12.423h-3.197V52.517z M315.168,67.498
			c1.338-1.125,2.007-2.906,2.007-5.344c0-2.405-0.669-4.14-2.007-5.207c-1.219-1.035-2.954-1.553-5.209-1.553h-6.347v13.654h6.347
			C312.214,69.049,313.949,68.532,315.168,67.498z"/>
		<path fill="#FDFDFE" d="M323.616,52.517h21.28v3.198h-18.086v13.152h14.891v3.197h-14.891v9.228h18.086v3.195h-21.28V52.517z"/>
		<path fill="#FDFDFE" d="M366.043,76.313c0-1.492-0.411-2.695-1.231-3.609c-0.823-0.913-1.866-1.666-3.128-2.26
			c-1.265-0.595-2.659-1.125-4.18-1.599c-1.524-0.471-2.97-1.012-4.34-1.62c-1.368-0.608-2.572-1.377-3.608-2.307
			s-1.705-2.155-2.009-3.676c-0.152-1.31,0.039-2.559,0.571-3.746c0.532-1.188,1.292-2.231,2.283-3.129
			c0.99-0.897,2.161-1.613,3.517-2.146c1.353-0.532,2.763-0.799,4.225-0.799c1.645,0,3.076,0.29,4.292,0.868
			c1.217,0.579,2.255,1.272,3.106,2.078c0.852,0.807,1.514,1.652,1.985,2.535c0.474,0.883,0.756,1.629,0.847,2.238h-3.519
			c-0.578-1.461-1.49-2.572-2.739-3.333c-1.249-0.762-2.574-1.157-3.973-1.188c-0.942-0.029-1.89,0.123-2.833,0.458
			c-0.942,0.335-1.772,0.792-2.489,1.37c-0.714,0.579-1.264,1.264-1.642,2.056c-0.383,0.792-0.48,1.629-0.298,2.511
			c0.243,1.067,0.86,1.912,1.849,2.535c0.99,0.624,2.17,1.18,3.541,1.666c1.368,0.489,2.814,0.976,4.338,1.464
			c1.522,0.487,2.924,1.117,4.203,1.895c1.277,0.775,2.335,1.772,3.173,2.991c0.837,1.219,1.256,2.8,1.256,4.75
			c0,1.46-0.307,2.77-0.914,3.928c-0.608,1.155-1.423,2.131-2.442,2.924c-1.021,0.791-2.2,1.391-3.54,1.803
			c-1.341,0.411-2.741,0.617-4.201,0.617c-1.462,0-2.894-0.261-4.292-0.777c-1.403-0.518-2.635-1.241-3.701-2.168
			c-1.064-0.93-1.925-2.049-2.581-3.358c-0.654-1.308-0.981-2.755-0.981-4.338h3.197c0,1.036,0.222,2.009,0.662,2.922
			c0.441,0.914,1.043,1.707,1.806,2.376c0.76,0.669,1.65,1.203,2.672,1.599c1.019,0.396,2.092,0.578,3.219,0.548
			c1.034-0.03,2.024-0.168,2.967-0.413c0.945-0.243,1.781-0.614,2.514-1.116c0.732-0.504,1.316-1.128,1.757-1.873
			C365.823,78.237,366.043,77.347,366.043,76.313z"/>
	</g>
</g>
</svg>
