<?xml version="1.0" encoding="utf-8"?>
<!-- Generator: Adobe Illustrator 16.0.0, SVG Export Plug-In . SVG Version: 6.00 Build 0)  -->
<!DOCTYPE svg PUBLIC "-//W3C//DTD SVG 1.1//EN" "http://www.w3.org/Graphics/SVG/1.1/DTD/svg11.dtd">
<svg version="1.1" id="Layer_1" xmlns="http://www.w3.org/2000/svg" xmlns:xlink="http://www.w3.org/1999/xlink" x="0px" y="0px"
	 width="244.154px" height="254.482px" viewBox="0 0 244.154 254.482" enable-background="new 0 0 244.154 254.482"
	 xml:space="preserve">
<g>
	<g>
		<linearGradient id="SVGID_1_" gradientUnits="userSpaceOnUse" x1="123.1748" y1="63.4297" x2="99.5691" y2="212.5192">
			<stop  offset="0" style="stop-color:#2D84C6"/>
			<stop  offset="1" style="stop-color:#1C6794"/>
		</linearGradient>
		<path fill="url(#SVGID_1_)" d="M105.313,151.572h11.03c7.166,0,13.945-1.356,20.338-4.07c6.397-2.714,11.959-6.43,16.705-11.185
			c4.743-4.748,8.473-10.264,11.18-16.552c2.709-6.295,4.065-13.128,4.065-20.48c0-7.167-1.356-13.951-4.065-20.341
			c-2.707-6.388-6.437-11.957-11.18-16.705c-4.746-4.743-10.308-8.471-16.705-11.18c-6.393-2.707-13.172-4.066-20.338-4.066
			c-9.678,0-18.289,1.842-25.847,5.518c-7.553,3.683-13.652,9.296-18.3,16.846H50.704c5.412-13.163,13.935-23.431,25.559-30.786
			c11.618-7.357,24.98-11.041,40.081-11.041c9.88,0,19.179,1.888,27.89,5.667c8.715,3.771,16.309,8.907,22.801,15.392
			c6.484,6.492,11.622,14.09,15.394,22.805c3.781,8.714,5.676,18.01,5.676,27.891c0,9.097-1.604,17.711-4.794,25.857
			c-3.208,8.125-7.608,15.343-13.217,21.638c-5.624,6.293-12.258,11.472-19.905,15.538c-7.656,4.062-15.832,6.687-24.542,7.847
			v22.645h-20.332V151.572z M127.967,218.666c0,3.489-1.167,6.393-3.483,8.719c-2.326,2.322-5.231,3.489-8.719,3.489
			c-3.482,0-6.392-1.167-8.708-3.489c-2.328-2.326-3.489-5.229-3.489-8.719c0-3.477,1.161-6.388,3.489-8.707
			c2.316-2.333,5.226-3.488,8.708-3.488c3.487,0,6.393,1.155,8.719,3.488C126.8,212.278,127.967,215.189,127.967,218.666z"/>
		<defs>
			<filter id="Adobe_OpacityMaskFilter" filterUnits="userSpaceOnUse" x="46.841" y="23.609" width="150.473" height="175.484">
				<feColorMatrix  type="matrix" values="1 0 0 0 0  0 1 0 0 0  0 0 1 0 0  0 0 0 1 0"/>
			</filter>
		</defs>
		<mask maskUnits="userSpaceOnUse" x="46.841" y="23.609" width="150.473" height="175.484" id="SVGID_2_">
			<g filter="url(#Adobe_OpacityMaskFilter)">
				<g>
					<path fill="#FFFFFF" d="M105.313,151.572h11.03c7.166,0,13.945-1.356,20.338-4.07c6.397-2.714,11.959-6.43,16.705-11.185
						c4.743-4.748,8.473-10.264,11.18-16.552c2.709-6.295,4.065-13.128,4.065-20.48c0-7.167-1.356-13.951-4.065-20.341
						c-2.707-6.388-6.437-11.957-11.18-16.705c-4.746-4.743-10.308-8.471-16.705-11.18c-6.393-2.707-13.172-4.066-20.338-4.066
						c-9.678,0-18.289,1.842-25.847,5.518c-7.553,3.683-13.652,9.296-18.3,16.846H50.704c5.412-13.163,13.935-23.431,25.559-30.786
						c11.618-7.357,24.98-11.041,40.081-11.041c9.88,0,19.179,1.888,27.89,5.667c8.715,3.771,16.309,8.907,22.801,15.392
						c6.484,6.492,11.622,14.09,15.394,22.805c3.781,8.714,5.676,18.01,5.676,27.891c0,9.097-1.604,17.711-4.794,25.857
						c-3.208,8.125-7.608,15.343-13.217,21.638c-5.624,6.293-12.258,11.472-19.905,15.538c-7.656,4.062-15.832,6.687-24.542,7.847
						v22.645h-20.332V151.572z M127.967,218.666c0,3.489-1.167,6.393-3.483,8.719c-2.326,2.322-5.231,3.489-8.719,3.489
						c-3.482,0-6.392-1.167-8.708-3.489c-2.328-2.326-3.489-5.229-3.489-8.719c0-3.477,1.161-6.388,3.489-8.707
						c2.316-2.333,5.226-3.488,8.708-3.488c3.487,0,6.393,1.155,8.719,3.488C126.8,212.278,127.967,215.189,127.967,218.666z"/>
				</g>
			</g>
		</mask>
		<g mask="url(#SVGID_2_)">
			<linearGradient id="SVGID_3_" gradientUnits="userSpaceOnUse" x1="104.646" y1="43.9331" x2="193.273" y2="121.3783">
				<stop  offset="0" style="stop-color:#C270AD"/>
				<stop  offset="1" style="stop-color:#94478D"/>
			</linearGradient>
			<path fill="url(#SVGID_3_)" d="M122.251,47.323c0,0,51.036-6.469,65.852,59.24c14.812,65.712,19.786-64.357-48.688-79.556
				C70.943,11.808,73.45,51.482,72.196,69.357C70.943,87.238,122.251,47.323,122.251,47.323z"/>
			<linearGradient id="SVGID_4_" gradientUnits="userSpaceOnUse" x1="106.335" y1="33.6367" x2="53.3242" y2="69.2534">
				<stop  offset="0" style="stop-color:#D89D31"/>
				<stop  offset="1" style="stop-color:#B17C2C"/>
			</linearGradient>
			<path fill="url(#SVGID_4_)" d="M72.196,69.357c0,0,15.488-41.764,47.207-41.764c0,0-55.843-8.812-68.699,41.764
				C37.847,119.933,60.212,69.309,72.196,69.357z"/>
			<path fill="#D89D33" d="M168.631,99.285c0,0,2.018,43.557-42.986,70.88l3.591,24.104l-28.318,4.824l-3.219-51.489L168.631,99.285
				z"/>
		</g>
	</g>
	<linearGradient id="SVGID_5_" gradientUnits="userSpaceOnUse" x1="117.0083" y1="210.832" x2="114.1566" y2="228.8428">
		<stop  offset="0" style="stop-color:#D89D31"/>
		<stop  offset="1" style="stop-color:#B17C2C"/>
	</linearGradient>
	<path fill="url(#SVGID_5_)" d="M127.967,218.671c0,6.738-5.463,12.203-12.202,12.203c-6.733,0-12.197-5.465-12.197-12.203
		c0-6.737,5.464-12.2,12.197-12.2C122.504,206.471,127.967,211.934,127.967,218.671z"/>
</g>
</svg>
