<?xml version="1.0" encoding="utf-8"?>
<!-- Generator: Adobe Illustrator 16.0.0, SVG Export Plug-In . SVG Version: 6.00 Build 0)  -->
<!DOCTYPE svg PUBLIC "-//W3C//DTD SVG 1.1//EN" "http://www.w3.org/Graphics/SVG/1.1/DTD/svg11.dtd">
<svg version="1.1" id="Layer_1" xmlns="http://www.w3.org/2000/svg" xmlns:xlink="http://www.w3.org/1999/xlink" x="0px" y="0px"
	 width="42.359px" height="39.111px" viewBox="0 0 42.359 39.111" enable-background="new 0 0 42.359 39.111" xml:space="preserve">
<g>
	<path fill="#D89D33" d="M34.682,16.662h-0.021c-0.342-5.396-4.827-9.671-10.316-9.671c-5.064,0-9.273,3.636-10.164,8.438
		c-0.115-0.005-0.236-0.01-0.352-0.01c-3.772,0-6.955,2.499-7.991,5.929c-0.161-0.01-0.327-0.02-0.488-0.02
		c-2.977,0-5.396,2.414-5.396,5.396c0,2.982,2.414,5.396,5.391,5.396h29.337c4.265,0,7.725-3.465,7.725-7.725
		C42.406,20.131,38.956,16.662,34.682,16.662L34.682,16.662z M34.682,16.662"/>
</g>
</svg>
