<?xml version="1.0" encoding="utf-8"?>
<!-- Generator: Adobe Illustrator 16.0.0, SVG Export Plug-In . SVG Version: 6.00 Build 0)  -->
<!DOCTYPE svg PUBLIC "-//W3C//DTD SVG 1.1//EN" "http://www.w3.org/Graphics/SVG/1.1/DTD/svg11.dtd">
<svg version="1.1" id="Layer_1" xmlns="http://www.w3.org/2000/svg" xmlns:xlink="http://www.w3.org/1999/xlink" x="0px" y="0px"
	 width="45px" height="45px" viewBox="0 0 45 45" enable-background="new 0 0 45 45" xml:space="preserve">
<path fill="#D89D33" d="M22.5,0C10.073,0,0,10.073,0,22.5S10.073,45,22.5,45S45,34.927,45,22.5S34.927,0,22.5,0z M32.471,30.778
	H10.806c-2.198,0-3.981-1.783-3.981-3.982c0-2.205,1.786-3.988,3.985-3.988c0.119,0,0.242,0.008,0.36,0.015
	c0.766-2.533,3.116-4.375,5.902-4.375c0.085,0,0.174,0,0.26,0.007c0.657-3.551,3.766-6.232,7.506-6.232
	c4.053,0,7.365,3.157,7.621,7.139h0.016c3.152,0,5.701,2.563,5.701,5.712C38.176,28.223,35.623,30.778,32.471,30.778z"/>
</svg>
